
    <svg width="184" height="180" viewBox="0 0 184 180" fill="none" xmlns="http://www.w3.org/2000/svg">
        <circle cx="93.8049" cy="89.7751" r="89.4382" fill="url(#paint0_linear_384_9054)"/>
        <circle cx="172.185" cy="58.2744" r="4.45417" stroke="#65D5AD" stroke-width="1.79775"/>
        <g filter="url(#filter0_f_384_9054)">
        <circle cx="93.9824" cy="164.342" r="5.35304" fill="#6AD6B0"/>
        </g>
        <g filter="url(#filter1_f_384_9054)">
        <path d="M57.3445 8.42676L60.0626 15.7724L67.4082 18.4905L60.0626 21.2086L57.3445 28.5542L54.6264 21.2086L47.2808 18.4905L54.6264 15.7724L57.3445 8.42676Z" fill="#65D5AD"/>
        </g>
        <path d="M13.5013 87.593C14.5038 87.8616 14.8396 89.1148 14.1057 89.8487L9.15169 94.8028C8.41776 95.5367 7.16455 95.2009 6.89592 94.1983L5.08262 87.431C4.81398 86.4284 5.73139 85.511 6.73396 85.7797L13.5013 87.593Z" fill="#5ED2A8"/>
        <g clip-path="url(#clip0_384_9054)">
        <g filter="url(#filter2_f_384_9054)">
        <path d="M53.6564 47.9321L55.2692 52.2906L59.6277 53.9034L55.2692 55.5162L53.6564 59.8747L52.0436 55.5162L47.6851 53.9034L52.0436 52.2906L53.6564 47.9321Z" fill="#65D5AD"/>
        </g>
        <circle cx="28.8155" cy="139.413" r="3.63932" stroke="#65D5AD" stroke-width="1.79775"/>
        <path d="M158.553 141.91L160.808 148.005L166.904 150.261L160.808 152.516L158.553 158.612L156.297 152.516L150.202 150.261L156.297 148.005L158.553 141.91Z" fill="#65D5AD"/>
        <circle cx="154.472" cy="115.618" r="3.37079" stroke="#65D5AD" stroke-width="1.79775"/>
        <g filter="url(#filter3_dd_384_9054)">
        <path fill-rule="evenodd" clip-rule="evenodd" d="M97.0884 31.858C95.2877 30.5792 92.8751 30.5792 91.0744 31.858L38.2414 69.3748C36.5096 70.6046 35.8699 72.4634 36.0851 74.2064V135.501C36.0851 140.282 39.9606 144.157 44.7412 144.157H143.422C148.202 144.157 152.078 140.282 152.078 135.501V74.2062C152.293 72.4633 151.653 70.6046 149.921 69.3748L97.0884 31.858Z" fill="url(#paint1_linear_384_9054)"/>
        </g>
        <mask id="mask0_384_9054" style="mask-type:alpha" maskUnits="userSpaceOnUse" x="29" y="30" width="130" height="115">
        <path fill-rule="evenodd" clip-rule="evenodd" d="M150.906 71.4454L94.0814 30.3784L37.2568 71.4454H36.0851V72.2921L29.7617 76.862H36.0851V144.157H152.078V76.862H158.401L152.078 72.2923V71.4454H150.906Z" fill="url(#paint2_linear_384_9054)"/>
        </mask>
        <g mask="url(#mask0_384_9054)">
        <g filter="url(#filter4_dd_384_9054)">
        <path d="M133.96 143.662H57.2441C54.7617 143.662 52.749 141.65 52.749 139.167V67.5454C52.749 65.063 54.7617 63.0503 57.2441 63.0503H133.96C136.443 63.0503 138.455 65.063 138.455 67.5454V139.167C138.455 141.65 136.443 143.662 133.96 143.662Z" fill="white"/>
        <path d="M124.521 79.8307C124.521 78.9205 123.783 78.1826 122.873 78.1826H68.3316C67.4214 78.1826 66.6836 78.9205 66.6836 79.8307C66.6836 80.7409 67.4215 81.4787 68.3316 81.4787H122.873C123.783 81.4787 124.521 80.7409 124.521 79.8307ZM124.521 92.4163C124.521 91.5061 123.783 90.7682 122.873 90.7682H68.3316C67.4215 90.7682 66.6836 91.5061 66.6836 92.4163C66.6836 93.3265 67.4215 94.0643 68.3316 94.0643H122.873C123.783 94.0643 124.521 93.3265 124.521 92.4163ZM124.521 105.005C124.521 104.094 123.783 103.357 122.873 103.357H68.3316C67.4215 103.357 66.6836 104.094 66.6836 105.005C66.6836 105.915 67.4215 106.653 68.3316 106.653H122.873C123.783 106.653 124.521 105.915 124.521 105.005ZM124.521 117.591C124.521 116.68 123.783 115.942 122.873 115.942H68.3319C67.4216 115.942 66.6836 116.68 66.6836 117.591C66.6836 118.501 67.4216 119.239 68.3319 119.239H122.873C123.783 119.239 124.521 118.501 124.521 117.591Z" fill="#6AD6B0"/>
        </g>
        <path d="M36.085 144.64V79.1997L152.77 144.64H36.085Z" fill="url(#paint3_linear_384_9054)"/>
        <path d="M152.77 144.64V79.1997L36.0849 144.64H152.77Z" fill="url(#paint4_linear_384_9054)"/>
        <path d="M94.2143 95.6465L162.582 153.556H25.8465L94.2143 95.6465Z" fill="url(#paint5_linear_384_9054)"/>
        </g>
        <g filter="url(#filter5_f_384_9054)">
        <circle cx="126.157" cy="56.2919" r="21.7978" fill="#1ECF91"/>
        </g>
        <circle cx="121.213" cy="51.3485" r="21.7978" fill="url(#paint6_linear_384_9054)"/>
        <path d="M121.438 42.1348C116.474 42.1348 112.45 46.159 112.45 51.1235C112.45 56.088 116.474 60.1123 121.438 60.1123C126.403 60.1123 130.427 56.088 130.427 51.1235C130.422 46.1617 126.4 42.1402 121.439 42.1348H121.438ZM125.696 49.0345L120.753 54.4278C120.588 54.6076 120.352 54.719 120.09 54.719C119.829 54.719 119.592 54.6067 119.428 54.4278L119.427 54.4269L117.18 51.9757C117.033 51.8166 116.943 51.6026 116.943 51.368C116.943 50.8718 117.346 50.4691 117.842 50.4691C118.104 50.4691 118.34 50.5815 118.505 50.7604L118.505 50.7613L120.09 52.4898L124.372 47.8193C124.536 47.6395 124.772 47.528 125.034 47.528C125.53 47.528 125.933 47.9307 125.933 48.4269C125.933 48.6615 125.843 48.8745 125.696 49.0354L125.696 49.0345Z" fill="white"/>
        </g>
        <defs>
        <filter id="filter0_f_384_9054" x="86.8316" y="157.191" width="14.3016" height="14.3016" filterUnits="userSpaceOnUse" color-interpolation-filters="sRGB">
        <feFlood flood-opacity="0" result="BackgroundImageFix"/>
        <feBlend mode="normal" in="SourceGraphic" in2="BackgroundImageFix" result="shape"/>
        <feGaussianBlur stdDeviation="0.898876" result="effect1_foregroundBlur_384_9054"/>
        </filter>
        <filter id="filter1_f_384_9054" x="45.483" y="6.629" width="23.7229" height="23.7229" filterUnits="userSpaceOnUse" color-interpolation-filters="sRGB">
        <feFlood flood-opacity="0" result="BackgroundImageFix"/>
        <feBlend mode="normal" in="SourceGraphic" in2="BackgroundImageFix" result="shape"/>
        <feGaussianBlur stdDeviation="0.898876" result="effect1_foregroundBlur_384_9054"/>
        </filter>
        <filter id="filter2_f_384_9054" x="45.8873" y="46.1344" width="15.5379" height="15.5379" filterUnits="userSpaceOnUse" color-interpolation-filters="sRGB">
        <feFlood flood-opacity="0" result="BackgroundImageFix"/>
        <feBlend mode="normal" in="SourceGraphic" in2="BackgroundImageFix" result="shape"/>
        <feGaussianBlur stdDeviation="0.898876" result="effect1_foregroundBlur_384_9054"/>
        </filter>
        <filter id="filter3_dd_384_9054" x="19.75" y="30.8989" width="148.663" height="145.848" filterUnits="userSpaceOnUse" color-interpolation-filters="sRGB">
        <feFlood flood-opacity="0" result="BackgroundImageFix"/>
        <feColorMatrix in="SourceAlpha" type="matrix" values="0 0 0 0 0 0 0 0 0 0 0 0 0 0 0 0 0 0 127 0" result="hardAlpha"/>
        <feMorphology radius="3.25898" operator="erode" in="SourceAlpha" result="effect1_dropShadow_384_9054"/>
        <feOffset dy="6.51796"/>
        <feGaussianBlur stdDeviation="3.25898"/>
        <feColorMatrix type="matrix" values="0 0 0 0 0.0627451 0 0 0 0 0.0941176 0 0 0 0 0.156863 0 0 0 0.03 0"/>
        <feBlend mode="normal" in2="BackgroundImageFix" result="effect1_dropShadow_384_9054"/>
        <feColorMatrix in="SourceAlpha" type="matrix" values="0 0 0 0 0 0 0 0 0 0 0 0 0 0 0 0 0 0 127 0" result="hardAlpha"/>
        <feMorphology radius="3.25898" operator="erode" in="SourceAlpha" result="effect2_dropShadow_384_9054"/>
        <feOffset dy="16.2949"/>
        <feGaussianBlur stdDeviation="9.77693"/>
        <feColorMatrix type="matrix" values="0 0 0 0 0.0627451 0 0 0 0 0.0941176 0 0 0 0 0.156863 0 0 0 0.08 0"/>
        <feBlend mode="normal" in2="effect1_dropShadow_384_9054" result="effect2_dropShadow_384_9054"/>
        <feBlend mode="normal" in="SourceGraphic" in2="effect2_dropShadow_384_9054" result="shape"/>
        </filter>
        <filter id="filter4_dd_384_9054" x="37.6368" y="63.0503" width="115.931" height="110.837" filterUnits="userSpaceOnUse" color-interpolation-filters="sRGB">
        <feFlood flood-opacity="0" result="BackgroundImageFix"/>
        <feColorMatrix in="SourceAlpha" type="matrix" values="0 0 0 0 0 0 0 0 0 0 0 0 0 0 0 0 0 0 127 0" result="hardAlpha"/>
        <feMorphology radius="3.02244" operator="erode" in="SourceAlpha" result="effect1_dropShadow_384_9054"/>
        <feOffset dy="6.04488"/>
        <feGaussianBlur stdDeviation="3.02244"/>
        <feColorMatrix type="matrix" values="0 0 0 0 0.0627451 0 0 0 0 0.0941176 0 0 0 0 0.156863 0 0 0 0.03 0"/>
        <feBlend mode="normal" in2="BackgroundImageFix" result="effect1_dropShadow_384_9054"/>
        <feColorMatrix in="SourceAlpha" type="matrix" values="0 0 0 0 0 0 0 0 0 0 0 0 0 0 0 0 0 0 127 0" result="hardAlpha"/>
        <feMorphology radius="3.02244" operator="erode" in="SourceAlpha" result="effect2_dropShadow_384_9054"/>
        <feOffset dy="15.1122"/>
        <feGaussianBlur stdDeviation="9.06732"/>
        <feColorMatrix type="matrix" values="0 0 0 0 0.0627451 0 0 0 0 0.0941176 0 0 0 0 0.156863 0 0 0 0.08 0"/>
        <feBlend mode="normal" in2="effect1_dropShadow_384_9054" result="effect2_dropShadow_384_9054"/>
        <feBlend mode="normal" in="SourceGraphic" in2="effect2_dropShadow_384_9054" result="shape"/>
        </filter>
        <filter id="filter5_f_384_9054" x="86.3818" y="16.5166" width="79.5508" height="79.5508" filterUnits="userSpaceOnUse" color-interpolation-filters="sRGB">
        <feFlood flood-opacity="0" result="BackgroundImageFix"/>
        <feBlend mode="normal" in="SourceGraphic" in2="BackgroundImageFix" result="shape"/>
        <feGaussianBlur stdDeviation="8.98876" result="effect1_foregroundBlur_384_9054"/>
        </filter>
        <linearGradient id="paint0_linear_384_9054" x1="93.8049" y1="0.336914" x2="93.8049" y2="179.213" gradientUnits="userSpaceOnUse">
        <stop stop-color="white" stop-opacity="0"/>
        <stop offset="1" stop-color="#D9FFF6"/>
        </linearGradient>
        <linearGradient id="paint1_linear_384_9054" x1="40.0872" y1="142.817" x2="34.9673" y2="39.307" gradientUnits="userSpaceOnUse">
        <stop stop-color="#2AA478"/>
        <stop offset="1" stop-color="#D5FCF2"/>
        </linearGradient>
        <linearGradient id="paint2_linear_384_9054" x1="94.0814" y1="30.3784" x2="94.0814" y2="144.157" gradientUnits="userSpaceOnUse">
        <stop stop-color="#DEFFF7"/>
        <stop offset="1" stop-color="#57CFA4"/>
        </linearGradient>
        <linearGradient id="paint3_linear_384_9054" x1="94.4275" y1="79.1997" x2="94.4275" y2="144.64" gradientUnits="userSpaceOnUse">
        <stop stop-color="#DEFFF7"/>
        <stop offset="1" stop-color="#57CFA4"/>
        </linearGradient>
        <linearGradient id="paint4_linear_384_9054" x1="94.4274" y1="79.1997" x2="94.4274" y2="144.64" gradientUnits="userSpaceOnUse">
        <stop stop-color="#DEFFF7"/>
        <stop offset="1" stop-color="#57CFA4"/>
        </linearGradient>
        <linearGradient id="paint5_linear_384_9054" x1="94.2143" y1="95.6465" x2="94.2143" y2="172.86" gradientUnits="userSpaceOnUse">
        <stop stop-color="#DEFFF7"/>
        <stop offset="1" stop-color="#57CFA4"/>
        </linearGradient>
        <linearGradient id="paint6_linear_384_9054" x1="121.213" y1="29.5508" x2="121.213" y2="73.1463" gradientUnits="userSpaceOnUse">
        <stop stop-color="#7BFFD1"/>
        <stop offset="1" stop-color="#269D74"/>
        </linearGradient>
        <clipPath id="clip0_384_9054">
        <rect width="151.91" height="151.91" fill="white" transform="translate(18.0674 18.3145)"/>
        </clipPath>
        </defs>
    </svg>
