
    <svg width="200" height="200" viewBox="0 0 200 200" fill="none" xmlns="http://www.w3.org/2000/svg">
    <g clip-path="url(#clip0_382_8612)">
    <path d="M90.1597 200V198.599" stroke="#D2D8DF" stroke-width="2.36893" stroke-linecap="round"/>
    <path d="M85.959 195.798H87.3595" stroke="#D2D8DF" stroke-width="2.36893" stroke-linecap="round"/>
    <path d="M90.1597 191.597V192.997" stroke="#D2D8DF" stroke-width="2.36893" stroke-linecap="round"/>
    <path d="M93.6622 195.798H92.2617" stroke="#D2D8DF" stroke-width="2.36893" stroke-linecap="round"/>
    <path d="M8.93018 141.179V139.078" stroke="#D2D8DF" stroke-width="2.36893" stroke-linecap="round"/>
    <path d="M2.62891 134.877H4.72968" stroke="#D2D8DF" stroke-width="2.36893" stroke-linecap="round"/>
    <path d="M8.93018 129.274V131.375" stroke="#D2D8DF" stroke-width="2.36893" stroke-linecap="round"/>
    <path d="M14.5329 134.877H12.4321" stroke="#D2D8DF" stroke-width="2.36893" stroke-linecap="round"/>
    <path fill-rule="evenodd" clip-rule="evenodd" d="M5.51692 163.168C5.51692 161.869 4.46468 160.817 3.16691 160.817C1.86854 160.817 0.816895 161.869 0.816895 163.168C0.816895 164.466 1.86854 165.519 3.16691 165.519C4.46468 165.519 5.51692 164.466 5.51692 163.168Z" fill="#D1D8DF"/>
    <path fill-rule="evenodd" clip-rule="evenodd" d="M48.2684 178.269C48.2684 176.971 47.2161 175.919 45.9184 175.919C44.6206 175.919 43.5684 176.971 43.5684 178.269C43.5684 179.568 44.6206 180.62 45.9184 180.62C47.2161 180.62 48.2684 179.568 48.2684 178.269Z" stroke="#D2D8DF" stroke-width="2.36893" stroke-linecap="round"/>
    <path d="M110.657 0V1.40051" stroke="#D2D8DF" stroke-width="2.36893" stroke-linecap="round"/>
    <path d="M114.858 4.20215H113.457" stroke="#D2D8DF" stroke-width="2.36893" stroke-linecap="round"/>
    <path d="M110.657 8.40344V7.00293" stroke="#D2D8DF" stroke-width="2.36893" stroke-linecap="round"/>
    <path d="M107.155 4.20215H108.555" stroke="#D2D8DF" stroke-width="2.36893" stroke-linecap="round"/>
    <path d="M191.887 58.8213V60.9221" stroke="#D2D8DF" stroke-width="2.36893" stroke-linecap="round"/>
    <path d="M198.188 65.123H196.087" stroke="#D2D8DF" stroke-width="2.36893" stroke-linecap="round"/>
    <path d="M191.887 70.7258V68.625" stroke="#D2D8DF" stroke-width="2.36893" stroke-linecap="round"/>
    <path d="M186.284 65.123H188.385" stroke="#D2D8DF" stroke-width="2.36893" stroke-linecap="round"/>
    <path fill-rule="evenodd" clip-rule="evenodd" d="M195.3 36.8321C195.3 38.1308 196.352 39.1827 197.65 39.1827C198.948 39.1827 200 38.1308 200 36.8321C200 35.534 198.948 34.4814 197.65 34.4814C196.352 34.4814 195.3 35.534 195.3 36.8321Z" fill="#D1D8DF"/>
    <path fill-rule="evenodd" clip-rule="evenodd" d="M152.549 21.7305C152.549 23.0292 153.601 24.0811 154.899 24.0811C156.196 24.0811 157.249 23.0292 157.249 21.7305C157.249 20.4324 156.196 19.3799 154.899 19.3799C153.601 19.3799 152.549 20.4324 152.549 21.7305Z" stroke="#D2D8DF" stroke-width="2.36893" stroke-linecap="round"/>
    <circle cx="99.9999" cy="100.183" r="66.1818" fill="#EAEEF9"/>
    <g filter="url(#filter0_dd_382_8612)">
    <path fill-rule="evenodd" clip-rule="evenodd" d="M102.911 33.0669C100.908 31.6444 98.2236 31.6444 96.2202 33.0669L37.4436 74.8044C35.5171 76.1725 34.8054 78.2401 35.0446 80.179V148.37C35.0446 153.688 39.3561 158 44.6746 158H154.456C159.775 158 164.086 153.688 164.086 148.37V80.1798C164.326 78.2407 163.614 76.1727 161.688 74.8044L102.911 33.0669Z" fill="url(#paint0_linear_382_8612)"/>
    </g>
    <mask id="mask0_382_8612" style="mask-type:alpha" maskUnits="userSpaceOnUse" x="35" y="32" width="130" height="126">
    <path fill-rule="evenodd" clip-rule="evenodd" d="M101.596 32.8884C100.384 32.0125 98.7469 32.0125 97.5348 32.8884L36.6949 76.8573C36.1638 77.2411 35.7891 77.7136 35.5549 78.2257C35.2339 78.6694 35.0447 79.2148 35.0447 79.8044V148.37C35.0447 153.688 39.3562 158 44.6747 158H154.457C159.775 158 164.087 153.688 164.087 148.37V79.8044C164.087 79.2144 163.897 78.6686 163.576 78.2247C163.341 77.713 162.967 77.2408 162.436 76.8573L101.596 32.8884Z" fill="#4D64DE"/>
    </mask>
    <g mask="url(#mask0_382_8612)">
    <g filter="url(#filter1_dd_382_8612)">
    <path d="M143.931 157.45H58.5838C55.8221 157.45 53.583 155.21 53.583 152.449V72.7693C53.583 70.0076 55.8221 67.7686 58.5838 67.7686H143.931C146.692 67.7686 148.931 70.0076 148.931 72.7693V152.449C148.931 155.21 146.692 157.45 143.931 157.45Z" fill="white"/>
    <path d="M133.43 86.4365C133.43 85.4239 132.609 84.603 131.596 84.603H70.9189C69.9063 84.603 69.0854 85.4239 69.0854 86.4365C69.0854 87.4491 69.9063 88.2699 70.9189 88.2699H131.596C132.609 88.2699 133.43 87.4491 133.43 86.4365ZM133.43 100.438C133.43 99.4254 132.609 98.6045 131.596 98.6045H70.9189C69.9063 98.6045 69.0854 99.4254 69.0854 100.438C69.0854 101.451 69.9063 102.271 70.9189 102.271H131.596C132.609 102.271 133.43 101.451 133.43 100.438ZM133.43 114.443C133.43 113.43 132.609 112.609 131.596 112.609H70.9189C69.9063 112.609 69.0854 113.43 69.0854 114.443C69.0854 115.455 69.9063 116.276 70.9189 116.276H131.596C132.609 116.276 133.43 115.455 133.43 114.443ZM133.43 128.444C133.43 127.432 132.609 126.611 131.596 126.611H70.9192C69.9064 126.611 69.0854 127.432 69.0854 128.444C69.0854 129.457 69.9064 130.278 70.9192 130.278H131.596C132.609 130.278 133.43 129.457 133.43 128.444Z" fill="#989FB0"/>
    </g>
    <path d="M35.0447 157.091V88.2026C35.0447 87.0978 36.2338 86.4013 37.1975 86.9417L160.031 155.831C161.329 156.559 160.812 158.537 159.324 158.537H36.4903C35.6919 158.537 35.0447 157.89 35.0447 157.091Z" fill="url(#paint1_linear_382_8612)"/>
    <path d="M164.857 157.091V88.2026C164.857 87.0978 163.668 86.4013 162.704 86.9417L39.8704 155.831C38.572 156.559 39.0889 158.537 40.5776 158.537H163.411C164.209 158.537 164.857 157.89 164.857 157.091Z" fill="url(#paint2_linear_382_8612)"/>
    <path d="M98.7791 104.823C99.3183 104.366 100.109 104.366 100.648 104.823L172.763 165.908C173.791 166.778 173.175 168.456 171.829 168.456H27.5978C26.2514 168.456 25.636 166.778 26.6634 165.908L98.7791 104.823Z" fill="url(#paint3_linear_382_8612)"/>
    </g>
    </g>
    <defs>
    <filter id="filter0_dd_382_8612" x="16.8719" y="32" width="165.387" height="162.256" filterUnits="userSpaceOnUse" color-interpolation-filters="sRGB">
    <feFlood flood-opacity="0" result="BackgroundImageFix"/>
    <feColorMatrix in="SourceAlpha" type="matrix" values="0 0 0 0 0 0 0 0 0 0 0 0 0 0 0 0 0 0 127 0" result="hardAlpha"/>
    <feMorphology radius="3.62561" operator="erode" in="SourceAlpha" result="effect1_dropShadow_382_8612"/>
    <feOffset dy="7.25122"/>
    <feGaussianBlur stdDeviation="3.62561"/>
    <feColorMatrix type="matrix" values="0 0 0 0 0.0627451 0 0 0 0 0.0941176 0 0 0 0 0.156863 0 0 0 0.03 0"/>
    <feBlend mode="normal" in2="BackgroundImageFix" result="effect1_dropShadow_382_8612"/>
    <feColorMatrix in="SourceAlpha" type="matrix" values="0 0 0 0 0 0 0 0 0 0 0 0 0 0 0 0 0 0 127 0" result="hardAlpha"/>
    <feMorphology radius="3.62561" operator="erode" in="SourceAlpha" result="effect2_dropShadow_382_8612"/>
    <feOffset dy="18.1281"/>
    <feGaussianBlur stdDeviation="10.8768"/>
    <feColorMatrix type="matrix" values="0 0 0 0 0.0627451 0 0 0 0 0.0941176 0 0 0 0 0.156863 0 0 0 0.08 0"/>
    <feBlend mode="normal" in2="effect1_dropShadow_382_8612" result="effect2_dropShadow_382_8612"/>
    <feBlend mode="normal" in="SourceGraphic" in2="effect2_dropShadow_382_8612" result="shape"/>
    </filter>
    <filter id="filter1_dd_382_8612" x="36.7707" y="67.7686" width="128.973" height="123.306" filterUnits="userSpaceOnUse" color-interpolation-filters="sRGB">
    <feFlood flood-opacity="0" result="BackgroundImageFix"/>
    <feColorMatrix in="SourceAlpha" type="matrix" values="0 0 0 0 0 0 0 0 0 0 0 0 0 0 0 0 0 0 127 0" result="hardAlpha"/>
    <feMorphology radius="3.36246" operator="erode" in="SourceAlpha" result="effect1_dropShadow_382_8612"/>
    <feOffset dy="6.72493"/>
    <feGaussianBlur stdDeviation="3.36246"/>
    <feColorMatrix type="matrix" values="0 0 0 0 0.0627451 0 0 0 0 0.0941176 0 0 0 0 0.156863 0 0 0 0.03 0"/>
    <feBlend mode="normal" in2="BackgroundImageFix" result="effect1_dropShadow_382_8612"/>
    <feColorMatrix in="SourceAlpha" type="matrix" values="0 0 0 0 0 0 0 0 0 0 0 0 0 0 0 0 0 0 127 0" result="hardAlpha"/>
    <feMorphology radius="3.36246" operator="erode" in="SourceAlpha" result="effect2_dropShadow_382_8612"/>
    <feOffset dy="16.8123"/>
    <feGaussianBlur stdDeviation="10.0874"/>
    <feColorMatrix type="matrix" values="0 0 0 0 0.0627451 0 0 0 0 0.0941176 0 0 0 0 0.156863 0 0 0 0.08 0"/>
    <feBlend mode="normal" in2="effect1_dropShadow_382_8612" result="effect2_dropShadow_382_8612"/>
    <feBlend mode="normal" in="SourceGraphic" in2="effect2_dropShadow_382_8612" result="shape"/>
    </filter>
    <linearGradient id="paint0_linear_382_8612" x1="39.497" y1="156.509" x2="33.8011" y2="41.354" gradientUnits="userSpaceOnUse">
    <stop stop-color="#A8AEB8"/>
    <stop offset="1" stop-color="#D4DAE6"/>
    </linearGradient>
    <linearGradient id="paint1_linear_382_8612" x1="37.0323" y1="156.984" x2="14.3182" y2="145.857" gradientUnits="userSpaceOnUse">
    <stop stop-color="#EDF0F6"/>
    <stop offset="1" stop-color="#FCFDFF"/>
    </linearGradient>
    <linearGradient id="paint2_linear_382_8612" x1="157.444" y1="153.936" x2="181.006" y2="142.353" gradientUnits="userSpaceOnUse">
    <stop stop-color="#EDF0F6"/>
    <stop offset="1" stop-color="#FCFDFF"/>
    </linearGradient>
    <linearGradient id="paint3_linear_382_8612" x1="18.005" y1="188.914" x2="16.0553" y2="110.265" gradientUnits="userSpaceOnUse">
    <stop stop-color="#EDF0F6"/>
    <stop offset="1" stop-color="#FCFDFF"/>
    </linearGradient>
    <clipPath id="clip0_382_8612">
    <rect width="200" height="200" fill="white"/>
    </clipPath>
    </defs>
    </svg>
