<svg width="200" height="200" viewBox="0 0 200 200" fill="none" xmlns="http://www.w3.org/2000/svg">
<g clip-path="url(#clip0_291_8599)">
<circle cx="97.4651" cy="96.9585" r="63.647" fill="#EAEEF9"/>
<g filter="url(#filter0_dd_291_8599)">
<path d="M138.818 16H56.1121C53.4564 16 51.3036 18.1528 51.3036 20.8085V49.6595C51.3036 52.3151 53.4564 54.4679 56.1121 54.4679H138.818C141.474 54.4679 143.627 52.3151 143.627 49.6595V20.8085C143.627 18.1528 141.474 16 138.818 16Z" fill="url(#paint0_linear_291_8599)"/>
<path d="M104.507 38.8008H62.7042C61.1301 38.8008 59.8541 40.0768 59.8541 41.6509C59.8541 43.2251 61.1301 44.5011 62.7042 44.5011H104.507C106.081 44.5011 107.357 43.2251 107.357 41.6509C107.357 40.0768 106.081 38.8008 104.507 38.8008Z" fill="#989FB0"/>
<path d="M87.4057 26.4502H62.7042C61.1301 26.4502 59.8541 27.7263 59.8541 29.3004C59.8541 30.8745 61.1301 32.1505 62.7042 32.1505H87.4057C88.9798 32.1505 90.2559 30.8745 90.2559 29.3004C90.2559 27.7263 88.9798 26.4502 87.4057 26.4502Z" fill="#D5DDEA"/>
</g>
<path d="M90.1596 200V198.599" stroke="#D2D8DF" stroke-width="2.36893" stroke-linecap="round"/>
<path d="M85.9589 195.798H87.3594" stroke="#D2D8DF" stroke-width="2.36893" stroke-linecap="round"/>
<path d="M90.1596 191.597V192.997" stroke="#D2D8DF" stroke-width="2.36893" stroke-linecap="round"/>
<path d="M93.6621 195.798H92.2616" stroke="#D2D8DF" stroke-width="2.36893" stroke-linecap="round"/>
<path d="M8.92993 141.179V139.078" stroke="#D2D8DF" stroke-width="2.36893" stroke-linecap="round"/>
<path d="M2.62885 134.877H4.72961" stroke="#D2D8DF" stroke-width="2.36893" stroke-linecap="round"/>
<path d="M8.92993 129.274V131.375" stroke="#D2D8DF" stroke-width="2.36893" stroke-linecap="round"/>
<path d="M14.5328 134.877H12.4321" stroke="#D2D8DF" stroke-width="2.36893" stroke-linecap="round"/>
<path fill-rule="evenodd" clip-rule="evenodd" d="M5.5168 163.168C5.5168 161.869 4.46455 160.817 3.16679 160.817C1.86842 160.817 0.816772 161.869 0.816772 163.168C0.816772 164.466 1.86842 165.519 3.16679 165.519C4.46455 165.519 5.5168 164.466 5.5168 163.168Z" fill="#D1D8DF"/>
<path fill-rule="evenodd" clip-rule="evenodd" d="M48.2684 178.269C48.2684 176.971 47.2161 175.919 45.9184 175.919C44.6206 175.919 43.5684 176.971 43.5684 178.269C43.5684 179.568 44.6206 180.62 45.9184 180.62C47.2161 180.62 48.2684 179.568 48.2684 178.269Z" stroke="#D2D8DF" stroke-width="2.36893" stroke-linecap="round"/>
<path d="M110.657 0V1.40051" stroke="#D2D8DF" stroke-width="2.36893" stroke-linecap="round"/>
<path d="M114.858 4.20215H113.457" stroke="#D2D8DF" stroke-width="2.36893" stroke-linecap="round"/>
<path d="M110.657 8.40344V7.00293" stroke="#D2D8DF" stroke-width="2.36893" stroke-linecap="round"/>
<path d="M107.155 4.20215H108.555" stroke="#D2D8DF" stroke-width="2.36893" stroke-linecap="round"/>
<path d="M191.887 58.8213V60.9221" stroke="#D2D8DF" stroke-width="2.36893" stroke-linecap="round"/>
<path d="M198.188 65.123H196.087" stroke="#D2D8DF" stroke-width="2.36893" stroke-linecap="round"/>
<path d="M191.887 70.7258V68.625" stroke="#D2D8DF" stroke-width="2.36893" stroke-linecap="round"/>
<path d="M186.284 65.123H188.385" stroke="#D2D8DF" stroke-width="2.36893" stroke-linecap="round"/>
<path fill-rule="evenodd" clip-rule="evenodd" d="M195.3 36.8321C195.3 38.1308 196.352 39.1827 197.65 39.1827C198.948 39.1827 200 38.1308 200 36.8321C200 35.534 198.948 34.4814 197.65 34.4814C196.352 34.4814 195.3 35.534 195.3 36.8321Z" fill="#D1D8DF"/>
<path fill-rule="evenodd" clip-rule="evenodd" d="M152.548 21.7305C152.548 23.0292 153.601 24.0811 154.898 24.0811C156.196 24.0811 157.248 23.0292 157.248 21.7305C157.248 20.4324 156.196 19.3799 154.898 19.3799C153.601 19.3799 152.548 20.4324 152.548 21.7305Z" stroke="#D2D8DF" stroke-width="2.36893" stroke-linecap="round"/>
<g filter="url(#filter1_dd_291_8599)">
<path d="M139.133 63.123H56.4264C53.7708 63.123 51.6179 64.9202 51.6179 67.1371V151.432C51.6179 153.649 53.7708 155.446 56.4264 155.446H139.133C141.788 155.446 143.941 153.649 143.941 151.432V67.1371C143.941 64.9202 141.788 63.123 139.133 63.123Z" fill="url(#paint1_linear_291_8599)"/>
</g>
<path d="M88.4722 74.6631H63.7708C62.1967 74.6631 60.9206 75.9391 60.9206 77.5133C60.9206 79.0874 62.1967 80.3634 63.7708 80.3634H88.4722C90.0463 80.3634 91.3224 79.0874 91.3224 77.5133C91.3224 75.9391 90.0463 74.6631 88.4722 74.6631Z" fill="#D5DDEA"/>
<path d="M105.573 87.0137H63.7708C62.1967 87.0137 60.9206 88.2897 60.9206 89.8638C60.9206 91.4379 62.1967 92.714 63.7708 92.714H105.573C107.147 92.714 108.423 91.4379 108.423 89.8638C108.423 88.2897 107.147 87.0137 105.573 87.0137Z" fill="#989FB0"/>
<path d="M88.4722 100.314H63.7708C62.1967 100.314 60.9206 101.591 60.9206 103.165C60.9206 104.739 62.1967 106.015 63.7708 106.015H88.4722C90.0463 106.015 91.3224 104.739 91.3224 103.165C91.3224 101.591 90.0463 100.314 88.4722 100.314Z" fill="#D5DDEA"/>
<path d="M105.573 112.665H63.7708C62.1967 112.665 60.9206 113.941 60.9206 115.515C60.9206 117.089 62.1967 118.365 63.7708 118.365H105.573C107.147 118.365 108.423 117.089 108.423 115.515C108.423 113.941 107.147 112.665 105.573 112.665Z" fill="#989FB0"/>
<path d="M88.4722 125.967H63.7708C62.1967 125.967 60.9206 127.243 60.9206 128.817C60.9206 130.391 62.1967 131.667 63.7708 131.667H88.4722C90.0463 131.667 91.3224 130.391 91.3224 128.817C91.3224 127.243 90.0463 125.967 88.4722 125.967Z" fill="#D5DDEA"/>
<path d="M105.573 138.316H63.7708C62.1967 138.316 60.9206 139.592 60.9206 141.167C60.9206 142.741 62.1967 144.017 63.7708 144.017H105.573C107.147 144.017 108.423 142.741 108.423 141.167C108.423 139.592 107.147 138.316 105.573 138.316Z" fill="#989FB0"/>
<g filter="url(#filter2_d_291_8599)">
<path d="M155.5 193C176.763 193 194 175.763 194 154.5C194 133.237 176.763 116 155.5 116C134.237 116 117 133.237 117 154.5C117 175.763 134.237 193 155.5 193Z" fill="#FAFBFD"/>
<path d="M166.363 191.339C146.053 197.498 124.52 185.988 118.36 165.679C112.2 145.369 123.712 123.836 144.021 117.677C164.33 111.518 185.865 123.028 192.023 143.337C198.182 163.646 186.672 185.18 166.363 191.339ZM144.134 118.048C124.03 124.145 112.634 145.462 118.732 165.566C124.829 185.67 146.146 197.065 166.25 190.968C186.354 184.87 197.749 163.554 191.652 143.45C185.555 123.346 164.238 111.95 144.134 118.048Z" fill="#E4E5E6"/>
<path d="M155.192 188.222C173.812 188.222 188.907 173.128 188.907 154.508C188.907 135.888 173.812 120.793 155.192 120.793C136.572 120.793 121.477 135.888 121.477 154.508C121.477 173.128 136.572 188.222 155.192 188.222Z" fill="url(#paint2_linear_291_8599)"/>
<path d="M155.192 156.535C156.312 156.535 157.219 155.627 157.219 154.508C157.219 153.388 156.312 152.48 155.192 152.48C154.072 152.48 153.165 153.388 153.165 154.508C153.165 155.627 154.072 156.535 155.192 156.535Z" fill="#83878F"/>
<path d="M180.183 168.025C180.158 168.033 180.133 168.035 180.107 168.033C180.082 168.03 180.057 168.023 180.035 168.01L155.1 154.678C155.069 154.662 155.043 154.637 155.025 154.607C155.007 154.577 154.998 154.543 154.998 154.507L154.989 134.851C154.989 134.799 155.01 134.75 155.046 134.713C155.083 134.677 155.132 134.656 155.183 134.656C155.235 134.656 155.284 134.677 155.321 134.713C155.357 134.75 155.378 134.799 155.378 134.851L155.386 154.391L180.218 167.668C180.252 167.686 180.279 167.714 180.297 167.748C180.316 167.782 180.323 167.82 180.319 167.859C180.316 167.897 180.301 167.933 180.276 167.963C180.252 167.992 180.219 168.014 180.183 168.025Z" fill="#83878F"/>
</g>
</g>
<defs>
<filter id="filter0_dd_291_8599" x="35.3918" y="16" width="124.147" height="70.2913" filterUnits="userSpaceOnUse" color-interpolation-filters="sRGB">
<feFlood flood-opacity="0" result="BackgroundImageFix"/>
<feColorMatrix in="SourceAlpha" type="matrix" values="0 0 0 0 0 0 0 0 0 0 0 0 0 0 0 0 0 0 127 0" result="hardAlpha"/>
<feMorphology radius="3.18235" operator="erode" in="SourceAlpha" result="effect1_dropShadow_291_8599"/>
<feOffset dy="6.3647"/>
<feGaussianBlur stdDeviation="3.18235"/>
<feColorMatrix type="matrix" values="0 0 0 0 0.0627451 0 0 0 0 0.0941176 0 0 0 0 0.156863 0 0 0 0.03 0"/>
<feBlend mode="normal" in2="BackgroundImageFix" result="effect1_dropShadow_291_8599"/>
<feColorMatrix in="SourceAlpha" type="matrix" values="0 0 0 0 0 0 0 0 0 0 0 0 0 0 0 0 0 0 127 0" result="hardAlpha"/>
<feMorphology radius="3.18235" operator="erode" in="SourceAlpha" result="effect2_dropShadow_291_8599"/>
<feOffset dy="15.9117"/>
<feGaussianBlur stdDeviation="9.54704"/>
<feColorMatrix type="matrix" values="0 0 0 0 0.0627451 0 0 0 0 0.0941176 0 0 0 0 0.156863 0 0 0 0.08 0"/>
<feBlend mode="normal" in2="effect1_dropShadow_291_8599" result="effect2_dropShadow_291_8599"/>
<feBlend mode="normal" in="SourceGraphic" in2="effect2_dropShadow_291_8599" result="shape"/>
</filter>
<filter id="filter1_dd_291_8599" x="35.7062" y="63.123" width="124.147" height="124.147" filterUnits="userSpaceOnUse" color-interpolation-filters="sRGB">
<feFlood flood-opacity="0" result="BackgroundImageFix"/>
<feColorMatrix in="SourceAlpha" type="matrix" values="0 0 0 0 0 0 0 0 0 0 0 0 0 0 0 0 0 0 127 0" result="hardAlpha"/>
<feMorphology radius="3.18235" operator="erode" in="SourceAlpha" result="effect1_dropShadow_291_8599"/>
<feOffset dy="6.3647"/>
<feGaussianBlur stdDeviation="3.18235"/>
<feColorMatrix type="matrix" values="0 0 0 0 0.0627451 0 0 0 0 0.0941176 0 0 0 0 0.156863 0 0 0 0.03 0"/>
<feBlend mode="normal" in2="BackgroundImageFix" result="effect1_dropShadow_291_8599"/>
<feColorMatrix in="SourceAlpha" type="matrix" values="0 0 0 0 0 0 0 0 0 0 0 0 0 0 0 0 0 0 127 0" result="hardAlpha"/>
<feMorphology radius="3.18235" operator="erode" in="SourceAlpha" result="effect2_dropShadow_291_8599"/>
<feOffset dy="15.9117"/>
<feGaussianBlur stdDeviation="9.54704"/>
<feColorMatrix type="matrix" values="0 0 0 0 0.0627451 0 0 0 0 0.0941176 0 0 0 0 0.156863 0 0 0 0.08 0"/>
<feBlend mode="normal" in2="effect1_dropShadow_291_8599" result="effect2_dropShadow_291_8599"/>
<feBlend mode="normal" in="SourceGraphic" in2="effect2_dropShadow_291_8599" result="shape"/>
</filter>
<filter id="filter2_d_291_8599" x="96.9845" y="96.2853" width="116.73" height="116.429" filterUnits="userSpaceOnUse" color-interpolation-filters="sRGB">
<feFlood flood-opacity="0" result="BackgroundImageFix"/>
<feColorMatrix in="SourceAlpha" type="matrix" values="0 0 0 0 0 0 0 0 0 0 0 0 0 0 0 0 0 0 127 0" result="hardAlpha"/>
<feMorphology radius="3.58449" operator="dilate" in="SourceAlpha" result="effect1_dropShadow_291_8599"/>
<feOffset/>
<feGaussianBlur stdDeviation="8.0651"/>
<feComposite in2="hardAlpha" operator="out"/>
<feColorMatrix type="matrix" values="0 0 0 0 0 0 0 0 0 0 0 0 0 0 0 0 0 0 0.04 0"/>
<feBlend mode="normal" in2="BackgroundImageFix" result="effect1_dropShadow_291_8599"/>
<feBlend mode="normal" in="SourceGraphic" in2="effect1_dropShadow_291_8599" result="shape"/>
</filter>
<linearGradient id="paint0_linear_291_8599" x1="54.5187" y1="54.0126" x2="53.7747" y2="18.7855" gradientUnits="userSpaceOnUse">
<stop stop-color="#EDF0F6"/>
<stop offset="1" stop-color="#FCFDFF"/>
</linearGradient>
<linearGradient id="paint1_linear_291_8599" x1="54.8331" y1="154.353" x2="50.5564" y2="69.9873" gradientUnits="userSpaceOnUse">
<stop stop-color="#EDF0F6"/>
<stop offset="1" stop-color="#FCFDFF"/>
</linearGradient>
<linearGradient id="paint2_linear_291_8599" x1="133.5" y1="140.5" x2="206.751" y2="188.462" gradientUnits="userSpaceOnUse">
<stop stop-color="#EDF0F6"/>
<stop offset="1" stop-color="#D0D4DB"/>
</linearGradient>
<clipPath id="clip0_291_8599">
<rect width="200" height="200" fill="white"/>
</clipPath>
</defs>
</svg>
